<svg width="1760" height="1760" xmlns="http://www.w3.org/2000/svg" xmlns:xlink="http://www.w3.org/1999/xlink" xml:space="preserve" overflow="hidden"><defs><clipPath id="clip0"><rect x="121" y="300" width="1760" height="1760"/></clipPath></defs><g clip-path="url(#clip0)" transform="translate(-121 -300)"><path d="M121 593.339C121 431.332 252.332 300 414.339 300L1587.66 300C1749.67 300 1881 431.332 1881 593.339L1881 1766.66C1881 1928.67 1749.67 2060 1587.66 2060L414.339 2060C252.332 2060 121 1928.67 121 1766.66Z" fill="#000000" fill-rule="evenodd" fill-opacity="0.101961"/><path d="M144 1747 1860 1747C1860 1908.82 1731.95 2040 1573.99 2040L430.006 2040C272.049 2040 144 1908.82 144 1747Z" fill="#391175" fill-rule="evenodd"/><path d="M144 613C144 451.18 272.049 320 430.006 320L1573.99 320C1731.95 320 1860 451.18 1860 613L144 613Z" fill="#5A1AB8" fill-rule="evenodd"/><path d="M144 639.308C144 489.187 267.415 333 413.732 333L1575.86 333C1722.18 333 1860 489.187 1860 639.308L1860 1726.55C1860 1876.67 1722.18 2023 1575.86 2023L414.942 2022.19C268.626 2022.19 144 1876.67 144 1726.55L144 639.308Z" fill="#4D17A0" fill-rule="evenodd"/><path d="M144 627C144 464.628 272.049 333 430.006 333L1573.99 333C1731.95 333 1860 464.628 1860 627L144 627Z" fill="#401383" fill-rule="evenodd" fill-opacity="0.501961"/><rect x="144" y="627" width="1716" height="643" fill="#401383" fill-opacity="0.501961"/><path d="M502.152 512.884C611.384 511.189 720.616 512.477 829.915 512.342 831.068 623.811 829.17 735.281 831 846.683 721.022 846.615 610.977 847.632 501 846.344 502.897 735.213 500.864 624.015 502.152 512.884Z" fill="#E8441F" fill-rule="evenodd"/><path d="M1173.55 511.127C1183.91 509.976 1194.13 507.741 1204.63 508.079 1281.46 508.486 1358.23 508.147 1435 508.283 1458.83 508.554 1483.2 505.845 1506.42 513.024 1507.16 625.653 1507.3 738.351 1506.21 850.98 1395.33 850.439 1284.37 851.726 1173.49 850.303 1166.31 789.214 1170.1 727.582 1169.29 666.222 1174.16 639.267 1166.92 612.108 1171.19 585.221 1174.57 560.568 1166.31 535.509 1173.55 511.127Z" fill="#E91F71" fill-rule="evenodd"/><path d="M500.479 847C610.628 848.286 720.846 847.27 830.995 847.338 836.696 861.074 834.66 876.163 834.592 890.643 834.456 971.771 834.728 1052.9 834.456 1134.1 833.846 1152.97 837.171 1172.26 831.47 1190.73 720.981 1190.32 610.424 1189.31 499.868 1191 494.235 1177.26 496.406 1162.18 496.475 1147.83 496.271 1061.97 496.339 976.102 496.406 890.237 496.406 875.824 494.099 860.533 500.479 847Z" fill="#E8AE1F" fill-rule="evenodd"/><path d="M1172.79 851C1283.85 852.422 1394.98 851.135 1506.04 851.677 1506.78 958.96 1508 1066.45 1505.5 1173.66 1394.77 1173.86 1283.99 1173.25 1173.26 1174 1168.72 1104.51 1172.65 1034.61 1171.3 964.92 1172.11 926.992 1169.6 888.861 1172.79 851Z" fill="#C520E9" fill-rule="evenodd"/><path d="M1173.09 1174.38C1283.85 1173.64 1394.68 1174.25 1505.44 1174.04 1508.02 1288.55 1506.8 1403.11 1506.05 1517.62 1421.13 1519.04 1336.21 1517.89 1251.29 1518.29 1223.48 1518.77 1195.54 1516.26 1168 1521 1174.38 1466.59 1166.85 1412.12 1171.39 1357.71 1168.61 1296.6 1166.64 1235.36 1173.09 1174.38Z" fill="#2091E9" fill-rule="evenodd"/><path d="M834.145 1521C945.35 1523.17 1056.76 1522.22 1168.03 1521.41 1169.93 1631.45 1168.37 1741.62 1168.84 1851.66 1057.3 1851.66 945.756 1852.74 834.213 1851.05 833.874 1741.01 834.01 1630.97 834.145 1521Z" fill="#20E9AB" fill-rule="evenodd"/><path d="M499.466 1174C609.29 1175.29 719.182 1174.27 829.007 1174.34 834.691 1188.07 832.661 1203.16 832.593 1217.64 832.458 1298.77 832.728 1379.9 832.458 1461.1 831.849 1479.97 835.165 1499.26 829.48 1517.73 719.318 1517.32 609.087 1516.31 498.857 1518 493.24 1504.26 495.405 1489.18 495.473 1474.83 495.27 1388.97 495.338 1303.1 495.405 1217.24 495.405 1202.82 493.105 1187.53 499.466 1174Z" fill="#B0E920" fill-rule="evenodd"/></g></svg>