<svg width="1760" height="1760" xmlns="http://www.w3.org/2000/svg" xmlns:xlink="http://www.w3.org/1999/xlink" xml:space="preserve" overflow="hidden"><defs><clipPath id="clip0"><rect x="650" y="267" width="1760" height="1760"/></clipPath></defs><g clip-path="url(#clip0)" transform="translate(-650 -267)"><path d="M650 560.339C650 398.332 781.332 267 943.339 267L2116.66 267C2278.67 267 2410 398.332 2410 560.339L2410 1733.66C2410 1895.67 2278.67 2027 2116.66 2027L943.339 2027C781.332 2027 650 1895.67 650 1733.66Z" fill="#000000" fill-rule="evenodd" fill-opacity="0.101961"/><path d="M673 1714 2389 1714C2389 1875.82 2260.95 2007 2102.99 2007L959.006 2007C801.049 2007 673 1875.82 673 1714Z" fill="#391175" fill-rule="evenodd"/><path d="M673 580C673 418.18 801.049 287 959.006 287L2102.99 287C2260.95 287 2389 418.18 2389 580L673 580Z" fill="#5A1AB8" fill-rule="evenodd"/><path d="M673 606.308C673 456.187 796.415 300 942.732 300L2104.86 300C2251.18 300 2389 456.187 2389 606.308L2389 1693.55C2389 1843.67 2251.18 1990 2104.86 1990L943.942 1989.19C797.626 1989.19 673 1843.67 673 1693.55L673 606.308Z" fill="#4D17A0" fill-rule="evenodd"/><path d="M673 594C673 432.181 801.049 301 959.006 301L2102.99 301C2260.95 301 2389 432.181 2389 594L673 594Z" fill="#401383" fill-rule="evenodd" fill-opacity="0.501961"/><rect x="673" y="594" width="1716" height="643" fill="#401383" fill-opacity="0.501961"/><path d="M832 397 833 397C832.733 397.241 832.233 397.724 832 398L832 397Z" fill="#B0E920" fill-rule="evenodd"/><path d="M1185 1187.64C1259.96 1186.49 1334.92 1187.18 1409.84 1187.46 1408.41 1255.76 1410.11 1324.15 1409.01 1392.54 1408.96 1398.83 1409.98 1404.98 1412 1411 1402.29 1408.47 1392.26 1408.84 1382.37 1409.16 1316.88 1409.21 1251.4 1408.93 1185.92 1409.26 1184.63 1335.4 1186.33 1261.5 1185 1187.64Z" fill="#B0E920" fill-rule="evenodd"/><path d="M1186.78 728.599C1260.59 727.451 1334.41 728.324 1408.27 728.232 1409.05 803.765 1407.76 879.298 1409 954.785 1334.68 954.739 1260.32 955.428 1186 954.555 1187.28 879.252 1185.91 803.902 1186.78 728.599Z" fill="#E8441F" fill-rule="evenodd"/><path d="M1641.09 727.124C1648.1 726.342 1655.03 724.824 1662.14 725.054 1714.19 725.33 1766.21 725.1 1818.22 725.192 1834.36 725.376 1850.87 723.536 1866.6 728.413 1867.11 804.922 1867.2 881.477 1866.47 957.987 1791.34 957.619 1716.17 958.493 1641.04 957.527 1636.18 916.028 1638.75 874.162 1638.2 832.48 1641.5 814.169 1636.59 795.72 1639.48 777.456 1641.77 760.709 1636.18 743.687 1641.09 727.124Z" fill="#E91F71" fill-rule="evenodd"/><path d="M1186.03 954C1260.43 954.871 1334.89 954.183 1409.29 954.229 1413.15 963.533 1411.77 973.753 1411.72 983.56 1411.63 1038.51 1411.82 1093.46 1411.63 1148.46 1411.22 1161.24 1413.47 1174.3 1409.62 1186.82 1334.98 1186.54 1260.3 1185.85 1185.61 1187 1181.81 1177.7 1183.27 1167.48 1183.32 1157.76 1183.18 1099.6 1183.23 1041.44 1183.27 983.285 1183.27 973.523 1181.72 963.166 1186.03 954Z" fill="#E8AE1F" fill-rule="evenodd"/><path d="M1641.21 957C1716.24 957.964 1791.32 957.092 1866.35 957.459 1866.85 1030.2 1867.68 1103.08 1865.98 1175.77 1791.18 1175.91 1716.33 1175.49 1641.53 1176 1638.46 1128.88 1641.12 1081.49 1640.2 1034.24 1640.75 1008.52 1639.06 982.67 1641.21 957Z" fill="#C520E9" fill-rule="evenodd"/><path d="M1641.44 1176.26C1716.26 1175.75 1791.12 1176.17 1865.95 1176.03 1867.69 1253.57 1866.86 1331.16 1866.36 1408.71 1808.99 1409.67 1751.63 1408.89 1694.26 1409.17 1675.48 1409.49 1656.6 1407.79 1638 1411 1642.31 1374.15 1637.22 1337.26 1640.29 1300.41 1638.41 1259.03 1637.08 1217.55 1641.44 1176.26Z" fill="#2091E9" fill-rule="evenodd"/><path d="M1412.1 1411C1487.12 1412.47 1562.28 1411.83 1637.35 1411.28 1638.63 1485.74 1637.57 1560.3 1637.89 1634.77 1562.64 1634.77 1487.39 1635.5 1412.14 1634.36 1411.91 1559.89 1412.01 1485.42 1412.1 1411Z" fill="#20E9AB" fill-rule="evenodd"/></g></svg>