<svg width="1760" height="1762" xmlns="http://www.w3.org/2000/svg" xmlns:xlink="http://www.w3.org/1999/xlink" xml:space="preserve" overflow="hidden"><defs><clipPath id="clip0"><rect x="650" y="265" width="1760" height="1762"/></clipPath></defs><g clip-path="url(#clip0)" transform="translate(-650 -265)"><path d="M650 558.339C650 396.332 781.332 265 943.339 265L2116.66 265C2278.67 265 2410 396.332 2410 558.339L2410 1731.66C2410 1893.67 2278.67 2025 2116.66 2025L943.339 2025C781.332 2025 650 1893.67 650 1731.66Z" fill="#000000" fill-rule="evenodd" fill-opacity="0.101961"/><path d="M673 1712 2389 1712C2389 1873.82 2260.95 2005 2102.99 2005L959.006 2005C801.049 2005 673 1873.82 673 1712Z" fill="#391175" fill-rule="evenodd"/><path d="M673 578C673 416.18 801.049 285 959.006 285L2102.99 285C2260.95 285 2389 416.18 2389 578L673 578Z" fill="#5A1AB8" fill-rule="evenodd"/><path d="M673 604.308C673 454.187 796.415 298 942.732 298L2104.86 298C2251.18 298 2389 454.187 2389 604.308L2389 1691.55C2389 1841.67 2251.18 1988 2104.86 1988L943.942 1987.18C797.626 1987.18 673 1841.67 673 1691.55L673 604.308Z" fill="#4D17A0" fill-rule="evenodd"/><path d="M673 592C673 430.181 801.049 299 959.006 299L2102.99 299C2260.95 299 2389 430.181 2389 592L673 592Z" fill="#401383" fill-rule="evenodd" fill-opacity="0.501961"/><rect x="673" y="592" width="1716" height="644" fill="#401383" fill-opacity="0.501961"/><path d="M650 560.339C650 398.332 781.332 267 943.339 267L2116.66 267C2278.67 267 2410 398.332 2410 560.339L2410 1733.66C2410 1895.67 2278.67 2027 2116.66 2027L943.339 2027C781.332 2027 650 1895.67 650 1733.66Z" fill="#000000" fill-rule="evenodd" fill-opacity="0.101961"/><path d="M773 2001 773 2000C773.334 2000.17 773.834 2000.67 774.001 2001L773 2001Z" fill="#0B0B0B" fill-rule="evenodd"/><path d="M1038.33 1488.05C1026.28 1445.07 1015.69 1401.64 1005 1358.31 1011.76 1203.55 1019.17 1048.63 1024.42 893.816 1031.58 892.706 1038.84 892 1046.1 892 1126.54 892.403 1207.02 891.848 1287.46 892.252 1294.22 891.294 1297.24 898.457 1301.13 902.442 1319.79 927.715 1341.02 951.121 1358.37 977.251 1346.26 1098.77 1328.21 1219.79 1316.31 1341.36 1389.13 1340.96 1462 1342.52 1534.82 1340.65 1584.14 1336.97 1633.77 1339.14 1683.04 1334.5 1704.12 1195.07 1727.57 1055.94 1748.65 916.466 1750.71 911.522 1748.7 899.567 1757.17 901.13 1825.91 900.626 1894.69 901.181 1963.43 900.828 1975.63 899.466 1985.37 907.84 1995.4 913.338 2033.27 935.029 2071.15 956.771 2109.02 978.361 2119.31 981.993 2113.41 993.444 2112.45 1000.91 2078.26 1151.18 2047.39 1302.21 2016.48 1453.2 1939.12 1457.48 1861.51 1457.43 1784.15 1462.02 1771.64 1527.15 1760.19 1592.42 1748.54 1657.65 1747.94 1662.74 1745.27 1670.36 1738.66 1669.25 1653.89 1673.39 1569.06 1676.36 1484.29 1680.95 1478.39 1681 1472.84 1682.82 1467.4 1684.74 1403.75 1682.42 1339.91 1691.75 1276.11 1692 1259.12 1647.96 1239.6 1604.88 1223.11 1560.59 1221.95 1534.56 1226.34 1508.53 1226.64 1482.45 1163.86 1484.02 1101.12 1485.98 1038.33 1488.05M1037.63 1453.7C1042.22 1392.31 1045.24 1330.77 1048.77 1269.27 1053.82 1236.89 1031.38 1209.65 1022.25 1179.99 1019.37 1238.35 1016.35 1296.72 1014.58 1355.13 1020.23 1388.37 1031.53 1420.51 1037.63 1453.7M1049.73 1222.71C1054.93 1149.27 1055.08 1075.52 1059.01 1001.97 1063.55 970.643 1042.87 944.261 1033.39 915.911 1029.96 995.008 1026.38 1074.16 1023.56 1153.25 1028.2 1177.57 1042.12 1199.16 1049.73 1222.71M1067.38 974.931C1159.97 974.729 1252.56 975.133 1345.15 974.729 1325.33 950.768 1307.48 924.839 1286.91 901.736 1203.34 900.676 1119.63 900.928 1036.01 901.635 1046.1 926.252 1056.99 950.465 1067.38 974.931M1046.55 1478.72C1129.01 1477.01 1211.36 1471.61 1293.76 1471.2 1300.77 1397.35 1308.59 1323.55 1316.66 1249.8 1230.78 1250.21 1144.89 1250.11 1059.01 1249.85 1055.08 1326.13 1049.93 1402.4 1046.55 1478.72M1059.57 1240.57C1145.8 1240.98 1232.09 1240.87 1318.37 1240.62 1327.05 1155.07 1339.81 1070.02 1348.43 984.465 1255.24 983.607 1161.94 984.061 1068.69 984.213 1065.21 1069.67 1062.94 1155.12 1059.57 1240.57M1277.58 1666.78C1281.36 1604.63 1288.72 1542.79 1292 1480.59 1273.39 1480.74 1254.78 1480.74 1236.17 1480.69 1235.27 1506.06 1232.24 1531.44 1232.24 1556.76 1246.01 1593.94 1260.98 1630.76 1277.58 1666.78M1285.04 1682.47C1339.66 1681.46 1394.07 1675.05 1448.69 1675 1469.26 1671.52 1490.19 1672.18 1510.92 1670.61 1521.61 1604.53 1530.64 1538.14 1540.12 1471.86 1460.69 1474.63 1381.16 1477.91 1301.78 1482.86 1296.39 1549.44 1290.79 1615.98 1285.04 1682.47M1303.45 1472.57C1375.46 1468.88 1447.53 1466.26 1519.54 1462.98 1523.47 1461.77 1537.49 1464.95 1533.91 1457.08 1513.34 1420.91 1489.64 1386.51 1468.4 1350.64 1417.32 1350.24 1366.28 1349.89 1315.2 1350.79 1311.62 1391.4 1306.42 1431.91 1303.45 1472.57M1549.75 1462.17C1622.92 1457.33 1696.45 1456.83 1769.57 1451.63 1743.55 1419.3 1717.13 1387.26 1691.61 1354.53 1687.68 1349.78 1683.24 1343.68 1676.13 1345.14 1611.12 1346.45 1546.17 1350.44 1481.21 1350.04 1500.98 1389.03 1525.95 1425.5 1549.75 1462.17M1521.05 1669.7C1593.47 1666.73 1665.94 1663.25 1738.36 1659.82 1750.01 1593.89 1762.56 1528.16 1774.26 1462.22 1699.43 1464.14 1624.64 1468.28 1549.85 1470.7 1540.87 1537.14 1530.43 1603.32 1521.05 1669.7M1696.9 1345.55C1723.73 1378.89 1750.51 1412.29 1777.29 1445.68 1791.76 1372.38 1805.18 1298.89 1819.45 1225.54 1787.28 1195.32 1756.71 1163.44 1724.34 1133.43 1713.45 1198.8 1703.21 1264.28 1692.57 1329.66 1691.16 1335.81 1692.57 1341.11 1696.9 1345.55M1725.6 1121.57C1757.12 1153.15 1788.49 1184.98 1821.52 1214.95 1836.24 1138.72 1851.42 1062.55 1865.49 986.18 1829.33 963.127 1794.54 938.005 1758.43 914.851 1747.44 983.758 1737.25 1052.77 1725.6 1121.57M1867.76 977.1C1876.59 983.406 1888.09 980.227 1898.22 980.984 1963.23 979.773 2028.58 983.305 2093.44 979.219 2051.18 957.982 2012.09 929.934 1969.03 910.766 1902.41 909.958 1835.69 910.16 1769.07 910.715 1801.7 933.213 1834.78 955.056 1867.76 977.1M1786.12 1451.93C1860.4 1449.46 1934.73 1447.8 2008.97 1444.57 2023.69 1372.79 2037.61 1300.8 2053.24 1229.22 1978.1 1229.83 1902.91 1228.26 1827.77 1230.03 1814.86 1304.18 1799.03 1377.78 1786.12 1451.93M1830.34 1219.89C1905.18 1220.34 1980.02 1220.39 2054.81 1219.89 2071.1 1143.21 2088.95 1066.84 2104.38 989.963 2027.63 990.468 1950.87 989.257 1874.17 990.67 1860.4 1067.19 1844.26 1143.37 1830.34 1219.89Z" fill="#0B0B0B" fill-rule="evenodd"/><path d="M1037.1 1454C1030.98 1420.77 1019.66 1388.61 1014 1355.33 1015.77 1296.85 1018.8 1238.43 1021.68 1180 1030.83 1209.69 1053.32 1236.96 1048.27 1269.38 1044.73 1330.94 1041.7 1392.54 1037.1 1454Z" fill="#D7F490" fill-rule="evenodd"/><path d="M1049.83 1223C1042.02 1199.43 1027.76 1177.82 1023 1153.49 1025.9 1074.35 1029.57 995.147 1033.08 916 1042.8 944.368 1063.99 970.767 1059.34 1002.11 1055.31 1075.71 1055.15 1149.51 1049.83 1223Z" fill="#F2D282" fill-rule="evenodd"/><path d="M1277.52 1667C1260.86 1631.02 1245.82 1594.23 1232 1557.09 1232 1531.8 1235.04 1506.45 1235.95 1481.1 1254.63 1481.15 1273.32 1481.15 1292 1481 1288.71 1543.13 1281.32 1604.92 1277.52 1667Z" fill="#8CF4D4" fill-rule="evenodd"/><path d="M1696.89 1345.63C1692.53 1341.18 1691.11 1335.87 1692.53 1329.7 1703.22 1264.17 1713.51 1198.53 1724.45 1133 1756.97 1163.09 1787.68 1195.04 1820 1225.33 1805.66 1298.85 1792.19 1372.53 1777.65 1446 1750.74 1412.53 1723.84 1379.05 1696.89 1345.63Z" fill="#7EC0F2" fill-rule="evenodd"/><path d="M1726 1121.66C1737.66 1052.87 1747.85 983.885 1758.86 915 1794.99 938.146 1829.81 963.26 1866 986.306 1851.92 1062.65 1836.73 1138.8 1821.99 1215 1788.93 1185.05 1757.54 1153.22 1726 1121.66Z" fill="#E08CF4" fill-rule="evenodd"/><path d="M1067.35 965C1056.97 940.504 1046.08 916.261 1036 891.613 1119.58 890.906 1203.25 890.654 1286.78 891.715 1307.35 914.847 1325.19 940.807 1345 964.798 1252.45 965.202 1159.9 964.798 1067.35 965Z" fill="#959595" fill-rule="evenodd"/><path d="M1046 1479C1049.39 1402.65 1054.55 1326.35 1058.5 1250.05 1144.66 1250.3 1230.83 1250.4 1317 1250 1308.9 1323.78 1301.06 1397.6 1294.03 1471.48 1211.35 1471.89 1128.73 1477.28 1046 1479Z" fill="#B0E920" fill-rule="evenodd"/><path d="M1060 1240.73C1063.38 1155.24 1065.65 1069.75 1069.13 984.256 1162.42 984.105 1255.76 983.651 1349 984.508 1340.37 1070.1 1327.61 1155.19 1318.93 1240.78 1232.6 1241.03 1146.28 1241.13 1060 1240.73Z" fill="#E8AE1F" fill-rule="evenodd"/><path d="M1285 1682C1290.75 1615.71 1296.34 1549.36 1301.74 1482.97 1381.09 1478.04 1460.6 1474.77 1540 1472 1530.52 1538.09 1521.5 1604.29 1510.81 1670.18 1490.09 1671.74 1469.17 1671.09 1448.6 1674.56 1394 1674.61 1339.6 1680.99 1285 1682Z" fill="#20E9AB" fill-rule="evenodd"/><path d="M1521 1670C1530.41 1603.45 1540.88 1537.1 1549.89 1470.5 1624.91 1468.07 1699.93 1463.92 1775 1462 1763.26 1528.1 1750.67 1593.99 1738.98 1660.09 1666.34 1663.53 1593.64 1667.02 1521 1670Z" fill="#20E9AB" fill-rule="evenodd"/><path d="M1867.88 976.845C1834.84 954.81 1801.69 932.976 1769 910.487 1835.75 909.932 1902.6 909.73 1969.35 910.537 2012.5 929.698 2051.66 957.734 2094 978.963 2029.02 983.047 1963.54 979.518 1898.4 980.728 1888.25 979.971 1876.73 983.148 1867.88 976.845Z" fill="#959595" fill-rule="evenodd"/><path d="M1786 1452C1798.95 1377.77 1814.84 1304.1 1827.79 1229.87 1903.18 1228.11 1978.61 1229.67 2054 1229.07 2038.32 1300.72 2024.35 1372.77 2009.58 1444.63 1935.1 1447.86 1860.53 1449.53 1786 1452Z" fill="#2091E9" fill-rule="evenodd"/><path d="M1831 1219.64C1844.92 1143.21 1861.05 1067.14 1874.82 990.712 1951.51 989.302 2028.26 990.511 2105 990.007 2089.57 1066.79 2071.72 1143.06 2055.43 1219.64 1980.66 1220.14 1905.83 1220.09 1831 1219.64Z" fill="#C520E9" fill-rule="evenodd"/><path d="M1304 1473C1306.97 1432.12 1312.17 1391.4 1315.75 1350.57 1366.82 1349.66 1417.85 1350.02 1468.92 1350.42 1490.15 1386.48 1513.85 1421.07 1534.42 1457.43 1538 1465.34 1523.98 1462.15 1520.05 1463.36 1448.05 1466.66 1376 1469.3 1304 1473Z" fill="#11AB7B" fill-rule="evenodd"/><path d="M1549.69 1462C1525.83 1425.41 1500.81 1389.01 1481 1350.1 1546.1 1350.51 1611.2 1346.53 1676.35 1345.22 1683.47 1343.76 1687.92 1349.85 1691.86 1354.58 1717.44 1387.25 1743.92 1419.21 1770 1451.48 1696.71 1456.66 1623.02 1457.17 1549.69 1462Z" fill="#11AB7B" fill-rule="evenodd"/><path d="M1067.6 952.5C1060.01 928.927 1046.13 907.323 1041.5 882.994 1044.32 803.846 1047.89 724.647 1051.31 645.5 1060.76 673.868 1081.39 700.267 1076.86 731.613 1072.94 805.208 1072.79 879.006 1067.6 952.5Z" stroke="#000000" stroke-width="6.875" stroke-miterlimit="8" fill="#F18B73" fill-rule="evenodd"/><path d="M1770.5 867.156C1782.16 798.372 1792.35 729.385 1803.36 660.5 1839.49 683.646 1874.31 708.76 1910.5 731.806 1896.42 808.155 1881.23 884.302 1866.49 960.5 1833.43 930.545 1802.04 898.725 1770.5 867.156Z" stroke="#000000" stroke-width="5.04167" stroke-miterlimit="8" fill="#F27AAB" fill-rule="evenodd"/><path d="M1085.35 704C1074.97 679.504 1064.08 655.261 1054 630.614 1137.58 629.907 1221.25 629.654 1304.78 630.715 1325.35 653.847 1343.19 679.807 1363 703.798 1270.45 704.202 1177.9 703.798 1085.35 704Z" stroke="#000000" stroke-width="8.02083" stroke-miterlimit="8" fill="#E8441F" fill-rule="evenodd"/><path d="M1077 969.729C1080.38 884.238 1082.65 798.747 1086.13 713.256 1179.42 713.104 1272.76 712.65 1366 713.508 1357.37 799.1 1344.61 884.187 1335.93 969.779 1249.6 970.031 1163.28 970.132 1077 969.729Z" stroke="#000000" stroke-width="8.02083" stroke-miterlimit="8" fill="#E8441F" fill-rule="evenodd"/><path d="M1913.08 723.345C1880.14 701.309 1847.09 679.476 1814.5 656.987 1881.04 656.432 1947.69 656.23 2014.23 657.037 2057.25 676.198 2096.29 704.234 2138.5 725.462 2073.72 729.547 2008.44 726.017 1943.51 727.227 1933.38 726.471 1921.9 729.648 1913.08 723.345Z" stroke="#000000" stroke-width="5.04167" stroke-miterlimit="8" fill="#E91F71" fill-rule="evenodd"/><path d="M1875.5 966.139C1889.42 889.38 1905.55 812.975 1919.32 736.216 1996.01 734.799 2072.76 736.014 2149.5 735.508 2134.07 812.621 2116.22 889.229 2099.93 966.139 2025.16 966.645 1950.33 966.595 1875.5 966.139Z" stroke="#000000" stroke-width="5.04167" stroke-miterlimit="8" fill="#E91F71" fill-rule="evenodd"/></g></svg>