<svg width="1760" height="1760" xmlns="http://www.w3.org/2000/svg" xmlns:xlink="http://www.w3.org/1999/xlink" xml:space="preserve" overflow="hidden"><defs><clipPath id="clip0"><rect x="650" y="267" width="1760" height="1760"/></clipPath></defs><g clip-path="url(#clip0)" transform="translate(-650 -267)"><path d="M650 560.339C650 398.332 781.332 267 943.339 267L2116.66 267C2278.67 267 2410 398.332 2410 560.339L2410 1733.66C2410 1895.67 2278.67 2027 2116.66 2027L943.339 2027C781.332 2027 650 1895.67 650 1733.66Z" fill="#000000" fill-rule="evenodd" fill-opacity="0.101961"/><path d="M673 1714 2389 1714C2389 1875.82 2260.95 2007 2102.99 2007L959.006 2007C801.049 2007 673 1875.82 673 1714Z" fill="#474747" fill-rule="evenodd"/><path d="M673 580C673 418.18 801.049 287 959.006 287L2102.99 287C2260.95 287 2389 418.18 2389 580L673 580Z" fill="#828282" fill-rule="evenodd"/><path d="M673 606.308C673 456.187 796.415 300 942.732 300L2104.86 300C2251.18 300 2389 456.187 2389 606.308L2389 1693.55C2389 1843.67 2251.18 1990 2104.86 1990L943.942 1989.19C797.626 1989.19 673 1843.67 673 1693.55L673 606.308Z" fill-rule="evenodd"/><path d="M673 594C673 432.181 801.049 301 959.006 301L2102.99 301C2260.95 301 2389 432.181 2389 594L673 594Z" fill="#4D4D4D" fill-rule="evenodd" fill-opacity="0.501961"/><rect x="673" y="594" width="1716" height="643" fill="#4D4D4D" fill-opacity="0.501961"/><path d="M-0.562052 719.981-0.562052 322.469 55.3134 322.469 111.188 322.469 111.188 272.781 111.188 223.091 167.063 223.091 222.938 223.091 222.938 167.192 222.938 111.291 278.813 111.291 334.688 111.291 334.688 55.3918 334.688-0.508611 446.438-0.508611 558.188-0.508611 558.188 55.3918 558.188 111.291 614.064 111.291 669.938 111.291 669.938 167.192 669.938 223.091 725.813 223.091 781.689 223.091 781.689 272.781 781.689 322.469 837.563 322.469 893.439 322.469 893.439 719.981 893.439 1117.49 775.48 1117.49 657.522 1117.49 657.522 1055.38 657.522 993.269 713.397 993.269 769.272 993.269 769.272 670.291 769.272 347.314 713.397 347.314 657.522 347.314 657.522 291.414 657.522 235.513 601.647 235.513 545.771 235.513 545.771 179.614 545.771 123.714 446.438 123.714 347.105 123.714 347.105 179.614 347.105 235.513 291.23 235.513 235.355 235.513 235.355 291.414 235.355 347.314 179.48 347.314 123.605 347.314 123.605 670.291 123.605 993.269 179.48 993.269 235.355 993.269 235.355 1055.38 235.355 1117.49 117.397 1117.49-0.562052 1117.49-0.562052 719.981Z" fill="#B2B3BA" fill-rule="evenodd" transform="matrix(1 0 0 -1 1083 1704)"/><path d="M-0.562471 558.242-0.562471 222.991 55.3546 222.991 111.271 222.991 111.271 167.117 111.271 111.241 167.188 111.241 223.104 111.241 223.104 55.367 223.104-0.508384 334.938-0.508384 446.771-0.508384 446.771 55.367 446.771 111.241 502.688 111.241 558.604 111.241 558.604 167.117 558.604 222.991 614.521 222.991 670.438 222.991 670.438 558.242 670.438 893.492 608.308 893.492 546.178 893.492 546.178 558.242 546.178 222.991 490.262 222.991 434.345 222.991 434.345 167.117 434.345 111.241 334.938 111.241 235.53 111.241 235.53 167.117 235.53 222.991 179.614 222.991 123.697 222.991 123.697 558.242 123.697 893.492 61.5672 893.492-0.562471 893.492-0.562471 558.242Z" fill="#562E8C" fill-rule="evenodd" transform="matrix(1 0 0 -1 1195 1592)"/><path d="M0.671064 330.99C-1.91268 144.769 0.671064-5.4499 5.83856-0.483915 18.7573 11.931 25.2162 672.396 13.5898 672.396 8.42231 672.396 1.96243 518.453 0.671064 330.99Z" fill="#6A4E97" fill-rule="evenodd" transform="matrix(1 0 0 -1 1191 1371)"/><path d="M0.176467 340.922C1.39639 158.425 7.49888 4.48207 12.3805-0.483915 17.2621-5.4499 19.7029 144.769 17.2621 330.99 16.0412 518.453 9.93968 672.396 5.05807 672.396 0.176467 672.396-2.26434 523.419 0.176467 340.922Z" fill="#6A4E97" fill-rule="evenodd" transform="matrix(1 0 0 -1 1850 1371)"/><path d="M-0.419112 42.002C-0.419112 4.58696 2.12657-11.6272 4.67225 8.32808 7.21793 27.0356 7.21793 56.9685 4.67225 76.9237 2.12657 95.6313-0.419112 79.4181-0.419112 42.002Z" fill="#6A4E97" fill-rule="evenodd" transform="matrix(1 0 0 -1 1310 1461)"/><path d="M-0.734234 42.002C-0.734234 4.58696 1.81158-11.6272 4.35739 8.32808 6.9032 27.0356 6.9032 56.9685 4.35739 76.9237 1.81158 95.6313-0.734234 79.4181-0.734234 42.002Z" fill="#6A4E97" fill-rule="evenodd" transform="matrix(1 0 0 -1 1745 1461)"/><path d="M1.92562 65.4417-0.563311-0.178055 111.437-0.178055 223.437-0.178055 220.949 65.4417 218.46 129.823 214.726 71.6318 209.748 12.2031 111.437 12.2031 13.1253 12.2031 8.14747 71.6318 4.41456 129.823 1.92562 65.4417Z" fill="#6A4E97" fill-rule="evenodd" transform="matrix(1 0 0 -1 1418 1592)"/><path d="M0.558033 344.533C5.63923-72.7448 10.7204-111.244 13.261 226.552 14.5308 411.596 11.9902 564.35 6.90903 564.35 0.558033 564.35-1.98256 464.998 0.558033 344.533Z" fill="#4D4757" fill-rule="evenodd" transform="matrix(1 0 0 -1 1303 1263)"/><path d="M-0.415775 226.552C2.12175-111.244 7.19579-72.7448 12.2708 344.533 14.8084 464.998 12.2708 564.35 7.19579 564.35 0.852487 564.35-1.68503 411.596-0.415775 226.552Z" fill="#4D4757" fill-rule="evenodd" transform="matrix(1 0 0 -1 1743 1263)"/><path d="M-0.500134 36.2428C-0.500134 2.74283 2.04555-10.905 4.59123 8.94612 7.13691 27.557 7.13691 54.8536 4.59123 70.9829 2.04555 85.872-0.500134 70.9829-0.500134 36.2428Z" fill="#4D4757" fill-rule="evenodd" transform="matrix(1 0 0 -1 1422 1461)"/><path d="M-0.653174 36.2428C-0.653174 2.74283 1.89251-10.905 4.43818 8.94612 6.98386 27.557 6.98386 54.8536 4.43818 70.9829 1.89251 85.872-0.653174 70.9829-0.653174 36.2428Z" fill="#4D4757" fill-rule="evenodd" transform="matrix(1 0 0 -1 1633 1461)"/><path d="M4.99297 6.68281C93.063-3.33058 209.663-3.33058 209.663 5.43064 209.663 10.4373 155.084 12.9407 89.3412 11.6885 22.3582 11.6885-14.8541 7.93399 4.99297 6.68281Z" fill="#9B9CA2" fill-rule="evenodd" transform="matrix(1 0 0 -1 1109 601)"/><path d="M-0.785878 6.31905C-0.785878-0.0329429 36.5742-2.57354 82.6523-0.0329429 230.849 6.31905 245.793 11.4002 121.258 12.67 54.0093 13.9408-0.785878 11.4002-0.785878 6.31905Z" fill="#9B9CA2" fill-rule="evenodd" transform="matrix(1 0 0 -1 1741 602)"/><path d="M0.0248204 61.0634C-1.19043 26.3439 0.0248204-0.936469 6.09819-0.936469 10.9573-0.936469 14.602 27.5834 14.602 61.0634 14.602 95.7829 12.1725 123.063 9.74297 123.063 7.31344 123.063 2.45436 94.5434 0.0248204 61.0634Z" fill="#5A5C5E" fill-rule="evenodd" transform="matrix(1 0 0 -1 1304 710)"/><path d="M-0.686216 64.3922C-0.686216 28.6523 2.87744-0.925893 7.6296-0.925893 12.3818-0.925893 14.7578 20.0258 12.3818 45.9063 5.25352 124.78 0.501358 130.942-0.686216 64.3922Z" fill="#5A5C5E" fill-rule="evenodd" transform="matrix(1 0 0 -1 1743 710)"/><path d="M8.92857 1.59251C27.5394-0.953304 54.8351-0.953304 70.9654 1.59251 85.8535 4.13832 70.9654 6.68413 36.2242 6.68413 2.7243 6.68413-10.9235 4.13832 8.92857 1.59251Z" fill="#5A5C5E" fill-rule="evenodd" transform="matrix(1 0 0 -1 1102 1379)"/><path d="M8.37571 1.59251C26.9866-0.953304 54.2822-0.953304 70.4125 1.59251 85.3006 4.13832 70.4125 6.68413 35.6714 6.68413 2.17144 6.68413-11.4764 4.13832 8.37571 1.59251Z" fill="#5A5C5E" fill-rule="evenodd" transform="matrix(1 0 0 -1 1885 1379)"/><path d="M8.13421 0.998318C26.6217-1.54749 56.2023-1.54749 75.9228 0.998318 94.4103 3.54413 78.3879 6.08994 41.412 6.08994 4.4371 6.08994-11.5863 3.54413 8.13421 0.998318Z" fill="#82769B" fill-rule="evenodd" transform="matrix(1 0 0 -1 1215 709)"/><path d="M7.84292 0.998318C26.5505-1.54749 56.4833-1.54749 76.4386 0.998318 95.1461 3.54413 78.933 6.08994 41.5169 6.08994 4.1018 6.08994-12.1123 3.54413 7.84292 0.998318Z" fill="#82769B" fill-rule="evenodd" transform="matrix(1 0 0 -1 1761 709)"/></g></svg>