<?xml version="1.0" encoding="UTF-8" standalone="no"?>
<svg
   width="305pt"
   height="305pt"
   viewBox="0 0 305 305"
   version="1.1"
   id="svg28"
   sodipodi:docname="20230117_201246.svg"
   xmlns:inkscape="http://www.inkscape.org/namespaces/inkscape"
   xmlns:sodipodi="http://sodipodi.sourceforge.net/DTD/sodipodi-0.dtd"
   xmlns="http://www.w3.org/2000/svg"
   xmlns:svg="http://www.w3.org/2000/svg">
  <defs
     id="defs32" />
  <sodipodi:namedview
     id="namedview30"
     pagecolor="#ffffff"
     bordercolor="#666666"
     borderopacity="1.0"
     inkscape:showpageshadow="2"
     inkscape:pageopacity="0.0"
     inkscape:pagecheckerboard="0"
     inkscape:deskcolor="#d1d1d1"
     inkscape:document-units="pt" />
  <g
     id="#b0e920ff">
    <path
       fill="#b0e920"
       opacity="1.00"
       d=" M 0.00 0.00 L 0.30 0.00 C 0.22 0.07 0.07 0.21 0.00 0.29 L 0.00 0.00 Z"
       id="path2" />
    <path
       fill="#b0e920"
       opacity="1.00"
       d=" M 77.08 172.39 C 93.37 172.14 109.66 172.29 125.94 172.35 C 125.63 187.22 126.00 202.11 125.76 217.00 C 125.75 218.37 125.97 219.71 126.41 221.02 C 124.30 220.47 122.12 220.55 119.97 220.62 C 105.74 220.63 91.51 220.57 77.28 220.64 C 77.00 204.56 77.37 188.47 77.08 172.39 Z"
       id="path4" />
  </g>
  <g
     id="#4d17a0ff">
    <path
       fill="#4d17a0"
       opacity="1.00"
       d=" M 0.30 0.00 L 305.00 0.00 L 305.00 305.00 L 0.00 305.00 L 0.00 0.29 C 0.07 0.21 0.22 0.07 0.30 0.00 M 77.34 72.37 C 77.15 88.76 77.45 105.16 77.17 121.55 C 76.23 123.55 76.57 125.81 76.57 127.94 C 76.56 140.63 76.55 153.32 76.58 166.01 C 76.57 168.13 76.25 170.36 77.08 172.39 C 77.37 188.47 77.00 204.56 77.28 220.64 C 91.51 220.57 105.74 220.63 119.97 220.62 C 122.12 220.55 124.30 220.47 126.41 221.02 C 125.97 219.71 125.75 218.37 125.76 217.00 C 126.00 202.11 125.63 187.22 125.94 172.35 C 126.78 169.62 126.29 166.77 126.38 163.98 C 126.42 151.98 126.38 139.99 126.40 128.00 C 126.41 125.86 126.71 123.63 125.87 121.60 C 125.60 105.17 125.88 88.73 125.71 72.29 C 109.58 72.31 93.46 72.12 77.34 72.37 M 176.40 72.09 C 175.33 75.69 176.55 79.39 176.05 83.03 C 175.42 87.00 176.49 91.01 175.77 94.99 C 175.89 104.05 175.33 113.15 176.39 122.17 C 175.92 127.76 176.29 133.39 176.17 138.99 C 176.37 149.28 175.79 159.60 176.46 169.86 C 175.51 178.87 175.80 187.92 176.21 196.95 C 175.54 204.99 176.65 213.04 175.71 221.08 C 179.77 220.38 183.89 220.75 187.99 220.68 C 200.51 220.62 213.03 220.79 225.55 220.58 C 225.66 203.66 225.84 186.73 225.46 169.81 C 225.83 153.98 225.65 138.11 225.54 122.27 C 225.70 105.64 225.68 89.00 225.57 72.37 C 222.14 71.31 218.54 71.71 215.02 71.67 C 203.68 71.65 192.34 71.70 180.99 71.64 C 179.44 71.59 177.93 71.92 176.40 72.09 M 126.41 221.02 C 126.39 237.25 126.37 253.49 126.42 269.73 C 142.89 269.98 159.36 269.82 175.83 269.82 C 175.76 253.58 175.99 237.32 175.71 221.08 C 159.28 221.20 142.83 221.34 126.41 221.02 Z"
       id="path7" />
  </g>
  <g
     id="#e8441fff">
    <path
       fill="#e8441f"
       opacity="1.00"
       d=" M 77.34 72.37 C 93.46 72.12 109.58 72.31 125.71 72.29 C 125.88 88.73 125.60 105.17 125.87 121.60 C 109.64 121.59 93.40 121.74 77.17 121.55 C 77.45 105.16 77.15 88.76 77.34 72.37 Z"
       id="path10" />
  </g>
  <g
     id="#e91f71ff">
    <path
       fill="#e91f71"
       opacity="1.00"
       d=" M 176.40 72.09 C 177.93 71.92 179.44 71.59 180.99 71.64 C 192.34 71.70 203.68 71.65 215.02 71.67 C 218.54 71.71 222.14 71.31 225.57 72.37 C 225.68 89.00 225.70 105.64 225.54 122.27 C 209.16 122.19 192.77 122.38 176.39 122.17 C 175.33 113.15 175.89 104.05 175.77 94.99 C 176.49 91.01 175.42 87.00 176.05 83.03 C 176.55 79.39 175.33 75.69 176.40 72.09 Z"
       id="path13" />
  </g>
  <g
     id="#e8ae1fff">
    <path
       fill="#e8ae1f"
       opacity="1.00"
       d=" M 77.17 121.55 C 93.40 121.74 109.64 121.59 125.87 121.60 C 126.71 123.63 126.41 125.86 126.40 128.00 C 126.38 139.99 126.42 151.98 126.38 163.98 C 126.29 166.77 126.78 169.62 125.94 172.35 C 109.66 172.29 93.37 172.14 77.08 172.39 C 76.25 170.36 76.57 168.13 76.58 166.01 C 76.55 153.32 76.56 140.63 76.57 127.94 C 76.57 125.81 76.23 123.55 77.17 121.55 Z"
       id="path16" />
  </g>
  <g
     id="#c520e9ff">
    <path
       fill="#c520e9"
       opacity="1.00"
       d=" M 176.39 122.17 C 192.77 122.38 209.16 122.19 225.54 122.27 C 225.65 138.11 225.83 153.98 225.46 169.81 C 209.13 169.84 192.79 169.75 176.46 169.86 C 175.79 159.60 176.37 149.28 176.17 138.99 C 176.29 133.39 175.92 127.76 176.39 122.17 Z"
       id="path19" />
  </g>
  <g
     id="#2091e9ff">
    <path
       fill="#2091e9"
       opacity="1.00"
       d=" M 176.46 169.86 C 192.79 169.75 209.13 169.84 225.46 169.81 C 225.84 186.73 225.66 203.66 225.55 220.58 C 213.03 220.79 200.51 220.62 187.99 220.68 C 183.89 220.75 179.77 220.38 175.71 221.08 C 176.65 213.04 175.54 204.99 176.21 196.95 C 175.80 187.92 175.51 178.87 176.46 169.86 Z"
       id="path22" />
  </g>
  <g
     id="#20e9abff">
    <path
       fill="#20e9ab"
       opacity="1.00"
       d=" M 126.41 221.02 C 142.83 221.34 159.28 221.20 175.71 221.08 C 175.99 237.32 175.76 253.58 175.83 269.82 C 159.36 269.82 142.89 269.98 126.42 269.73 C 126.37 253.49 126.39 237.25 126.41 221.02 Z"
       id="path25" />
  </g>
</svg>
